<mxfile host="65bd71144e">
    <diagram id="63r_jwSm0CCk3amMx-gd" name="Page-1">
        <mxGraphModel dx="783" dy="615" grid="1" gridSize="10" guides="1" tooltips="1" connect="1" arrows="1" fold="1" page="1" pageScale="1" pageWidth="850" pageHeight="1100" math="0" shadow="0">
            <root>
                <mxCell id="0"/>
                <mxCell id="1" parent="0"/>
                <mxCell id="8" value="Estimator" style="swimlane;fontStyle=0;childLayout=stackLayout;horizontal=1;startSize=26;horizontalStack=0;resizeParent=1;resizeParentMax=0;resizeLast=0;collapsible=1;marginBottom=0;whiteSpace=wrap;html=1;strokeColor=#FFFFFF;" parent="1" vertex="1">
                    <mxGeometry x="330" y="170" width="260" height="110" as="geometry"/>
                </mxCell>
                <mxCell id="9" value="+ get_params(deep=True)" style="text;align=left;verticalAlign=top;spacingLeft=4;spacingRight=4;overflow=hidden;rotatable=0;points=[[0,0.5],[1,0.5]];portConstraint=eastwest;whiteSpace=wrap;html=1;strokeColor=#FFFFFF;fillColor=default;" parent="8" vertex="1">
                    <mxGeometry y="26" width="260" height="32" as="geometry"/>
                </mxCell>
                <mxCell id="10" value="+&amp;nbsp; set_params(**params)" style="text;align=left;verticalAlign=top;spacingLeft=4;spacingRight=4;overflow=hidden;rotatable=0;points=[[0,0.5],[1,0.5]];portConstraint=eastwest;whiteSpace=wrap;html=1;strokeColor=#FFFFFF;fillColor=default;" parent="8" vertex="1">
                    <mxGeometry y="58" width="260" height="26" as="geometry"/>
                </mxCell>
                <mxCell id="11" value="+ fit(X, y=None)" style="text;align=left;verticalAlign=top;spacingLeft=4;spacingRight=4;overflow=hidden;rotatable=0;points=[[0,0.5],[1,0.5]];portConstraint=eastwest;whiteSpace=wrap;html=1;strokeColor=#FFFFFF;fillColor=default;" parent="8" vertex="1">
                    <mxGeometry y="84" width="260" height="26" as="geometry"/>
                </mxCell>
                <mxCell id="14" value="" style="endArrow=block;endSize=16;endFill=0;html=1;strokeColor=#FFFFFF;" parent="1" edge="1">
                    <mxGeometry x="-0.1596" y="-22" width="160" relative="1" as="geometry">
                        <mxPoint x="459.5" y="400" as="sourcePoint"/>
                        <mxPoint x="459.5" y="280" as="targetPoint"/>
                        <mxPoint as="offset"/>
                    </mxGeometry>
                </mxCell>
                <mxCell id="17" value="Predictor" style="swimlane;fontStyle=0;childLayout=stackLayout;horizontal=1;startSize=26;horizontalStack=0;resizeParent=1;resizeParentMax=0;resizeLast=0;collapsible=1;marginBottom=0;whiteSpace=wrap;html=1;strokeColor=#FFFFFF;" parent="1" vertex="1">
                    <mxGeometry x="390" y="400" width="140" height="128" as="geometry"/>
                </mxCell>
                <mxCell id="19" value="+ predict(X)" style="text;align=left;verticalAlign=top;spacingLeft=4;spacingRight=4;overflow=hidden;rotatable=0;points=[[0,0.5],[1,0.5]];portConstraint=eastwest;whiteSpace=wrap;html=1;strokeColor=#FFFFFF;fillColor=default;" parent="17" vertex="1">
                    <mxGeometry y="26" width="140" height="24" as="geometry"/>
                </mxCell>
                <mxCell id="37" value="+ fit(X, y)" style="text;align=left;verticalAlign=top;spacingLeft=4;spacingRight=4;overflow=hidden;rotatable=0;points=[[0,0.5],[1,0.5]];portConstraint=eastwest;whiteSpace=wrap;html=1;strokeColor=#FFFFFF;fillColor=default;" parent="17" vertex="1">
                    <mxGeometry y="50" width="140" height="26" as="geometry"/>
                </mxCell>
                <mxCell id="38" value="+ fit-predict&lt;span style=&quot;font-family: monospace; font-size: 0px; text-wrap: nowrap;&quot;&gt;%3CmxGraphModel%3E%3Croot%3E%3CmxCell%20id%3D%220%22%2F%3E%3CmxCell%20id%3D%221%22%20parent%3D%220%22%2F%3E%3CmxCell%20id%3D%222%22%20value%3D%22%2B%20field%3A%20type%22%20style%3D%22text%3BstrokeColor%3Dnone%3BfillColor%3Dnone%3Balign%3Dleft%3BverticalAlign%3Dtop%3BspacingLeft%3D4%3BspacingRight%3D4%3Boverflow%3Dhidden%3Brotatable%3D0%3Bpoints%3D%5B%5B0%2C0.5%5D%2C%5B1%2C0.5%5D%5D%3BportConstraint%3Deastwest%3BwhiteSpace%3Dwrap%3Bhtml%3D1%3B%22%20vertex%3D%221%22%20parent%3D%221%22%3E%3CmxGeometry%20x%3D%22390%22%20y%3D%22450%22%20width%3D%22140%22%20height%3D%2226%22%20as%3D%22geometry%22%2F%3E%3C%2FmxCell%3E%3C%2Froot%3E%3C%2FmxGraphModel%3E&lt;/span&gt;(X,y)" style="text;align=left;verticalAlign=top;spacingLeft=4;spacingRight=4;overflow=hidden;rotatable=0;points=[[0,0.5],[1,0.5]];portConstraint=eastwest;whiteSpace=wrap;html=1;strokeColor=#FFFFFF;fillColor=default;" parent="17" vertex="1">
                    <mxGeometry y="76" width="140" height="26" as="geometry"/>
                </mxCell>
                <mxCell id="40" value="+ score(X,Y)" style="text;align=left;verticalAlign=top;spacingLeft=4;spacingRight=4;overflow=hidden;rotatable=0;points=[[0,0.5],[1,0.5]];portConstraint=eastwest;whiteSpace=wrap;html=1;strokeColor=#FFFFFF;fillColor=default;" parent="17" vertex="1">
                    <mxGeometry y="102" width="140" height="26" as="geometry"/>
                </mxCell>
                <mxCell id="21" value="Meta-Estimator" style="swimlane;fontStyle=0;childLayout=stackLayout;horizontal=1;startSize=26;horizontalStack=0;resizeParent=1;resizeParentMax=0;resizeLast=0;collapsible=1;marginBottom=0;whiteSpace=wrap;html=1;strokeColor=#FFFFFF;" parent="1" vertex="1">
                    <mxGeometry x="180" y="400" width="140" height="52" as="geometry"/>
                </mxCell>
                <mxCell id="22" value="- estimators" style="text;align=left;verticalAlign=top;spacingLeft=4;spacingRight=4;overflow=hidden;rotatable=0;points=[[0,0.5],[1,0.5]];portConstraint=eastwest;whiteSpace=wrap;html=1;strokeColor=#FFFFFF;fillColor=default;" parent="21" vertex="1">
                    <mxGeometry y="26" width="140" height="26" as="geometry"/>
                </mxCell>
                <mxCell id="25" value="Transformer" style="swimlane;fontStyle=0;childLayout=stackLayout;horizontal=1;startSize=26;horizontalStack=0;resizeParent=1;resizeParentMax=0;resizeLast=0;collapsible=1;marginBottom=0;whiteSpace=wrap;html=1;strokeColor=#FFFFFF;" parent="1" vertex="1">
                    <mxGeometry x="620" y="400" width="170" height="104" as="geometry"/>
                </mxCell>
                <mxCell id="26" value="+ transform(X, y=None)" style="text;align=left;verticalAlign=top;spacingLeft=4;spacingRight=4;overflow=hidden;rotatable=0;points=[[0,0.5],[1,0.5]];portConstraint=eastwest;whiteSpace=wrap;html=1;strokeColor=#FFFFFF;fillColor=default;" parent="25" vertex="1">
                    <mxGeometry y="26" width="170" height="26" as="geometry"/>
                </mxCell>
                <mxCell id="27" value="+ fit(X, y=None)" style="text;align=left;verticalAlign=top;spacingLeft=4;spacingRight=4;overflow=hidden;rotatable=0;points=[[0,0.5],[1,0.5]];portConstraint=eastwest;whiteSpace=wrap;html=1;strokeColor=#FFFFFF;fillColor=default;" parent="25" vertex="1">
                    <mxGeometry y="52" width="170" height="26" as="geometry"/>
                </mxCell>
                <mxCell id="28" value="+ fit-transform(X, y=None)" style="text;align=left;verticalAlign=top;spacingLeft=4;spacingRight=4;overflow=hidden;rotatable=0;points=[[0,0.5],[1,0.5]];portConstraint=eastwest;whiteSpace=wrap;html=1;strokeColor=#FFFFFF;fillColor=default;" parent="25" vertex="1">
                    <mxGeometry y="78" width="170" height="26" as="geometry"/>
                </mxCell>
                <mxCell id="33" value="" style="endArrow=none;html=1;strokeColor=#FFFFFF;" parent="1" edge="1">
                    <mxGeometry width="50" height="50" relative="1" as="geometry">
                        <mxPoint x="240" y="360" as="sourcePoint"/>
                        <mxPoint x="700" y="360" as="targetPoint"/>
                    </mxGeometry>
                </mxCell>
                <mxCell id="34" value="" style="endArrow=none;html=1;exitX=0.421;exitY=-0.038;exitDx=0;exitDy=0;exitPerimeter=0;strokeColor=#FFFFFF;" parent="1" source="21" edge="1">
                    <mxGeometry width="50" height="50" relative="1" as="geometry">
                        <mxPoint x="240" y="390" as="sourcePoint"/>
                        <mxPoint x="240" y="360" as="targetPoint"/>
                    </mxGeometry>
                </mxCell>
                <mxCell id="36" value="" style="endArrow=none;html=1;strokeColor=#FFFFFF;" parent="1" edge="1">
                    <mxGeometry width="50" height="50" relative="1" as="geometry">
                        <mxPoint x="700" y="400" as="sourcePoint"/>
                        <mxPoint x="700" y="360" as="targetPoint"/>
                        <Array as="points"/>
                    </mxGeometry>
                </mxCell>
                <mxCell id="41" value="" style="endArrow=diamondThin;endFill=1;endSize=24;html=1;entryX=-0.015;entryY=0.077;entryDx=0;entryDy=0;entryPerimeter=0;strokeColor=#FFFFFF;" parent="1" target="10" edge="1">
                    <mxGeometry width="160" relative="1" as="geometry">
                        <mxPoint x="180" y="430" as="sourcePoint"/>
                        <mxPoint x="410" y="360" as="targetPoint"/>
                        <Array as="points">
                            <mxPoint x="180" y="430"/>
                            <mxPoint x="160" y="430"/>
                            <mxPoint x="160" y="230"/>
                        </Array>
                    </mxGeometry>
                </mxCell>
                <mxCell id="42" value="Pipeline" style="swimlane;fontStyle=0;childLayout=stackLayout;horizontal=1;startSize=26;horizontalStack=0;resizeParent=1;resizeParentMax=0;resizeLast=0;collapsible=1;marginBottom=0;whiteSpace=wrap;html=1;strokeColor=#FFFFFF;" parent="1" vertex="1">
                    <mxGeometry x="30" y="510" width="140" height="130" as="geometry"/>
                </mxCell>
                <mxCell id="43" value="+ predict(X)" style="text;align=left;verticalAlign=top;spacingLeft=4;spacingRight=4;overflow=hidden;rotatable=0;points=[[0,0.5],[1,0.5]];portConstraint=eastwest;whiteSpace=wrap;html=1;strokeColor=#FFFFFF;fillColor=default;" parent="42" vertex="1">
                    <mxGeometry y="26" width="140" height="26" as="geometry"/>
                </mxCell>
                <mxCell id="54" value="+ fit(X,y=None)" style="text;align=left;verticalAlign=top;spacingLeft=4;spacingRight=4;overflow=hidden;rotatable=0;points=[[0,0.5],[1,0.5]];portConstraint=eastwest;whiteSpace=wrap;html=1;strokeColor=#FFFFFF;fillColor=default;" parent="42" vertex="1">
                    <mxGeometry y="52" width="140" height="26" as="geometry"/>
                </mxCell>
                <mxCell id="55" value="+ fit_predict(X, y=None)" style="text;align=left;verticalAlign=top;spacingLeft=4;spacingRight=4;overflow=hidden;rotatable=0;points=[[0,0.5],[1,0.5]];portConstraint=eastwest;whiteSpace=wrap;html=1;strokeColor=#FFFFFF;fillColor=default;" parent="42" vertex="1">
                    <mxGeometry y="78" width="140" height="26" as="geometry"/>
                </mxCell>
                <mxCell id="44" value="&lt;span style=&quot;font-family: Helvetica; font-size: 12px; font-style: normal; font-variant-ligatures: normal; font-variant-caps: normal; font-weight: 400; letter-spacing: normal; orphans: 2; text-align: left; text-indent: 0px; text-transform: none; widows: 2; word-spacing: 0px; -webkit-text-stroke-width: 0px; white-space: normal; text-decoration-thickness: initial; text-decoration-style: initial; text-decoration-color: initial; float: none; display: inline !important;&quot;&gt;&lt;font style=&quot;color: light-dark(rgb(255, 255, 255), rgb(255, 255, 255));&quot;&gt;+ score(X, Y)&lt;/font&gt;&lt;/span&gt;" style="text;align=left;verticalAlign=top;spacingLeft=4;spacingRight=4;overflow=hidden;rotatable=0;points=[[0,0.5],[1,0.5]];portConstraint=eastwest;whiteSpace=wrap;html=1;strokeColor=#FFFFFF;fillColor=default;" parent="42" vertex="1">
                    <mxGeometry y="104" width="140" height="26" as="geometry"/>
                </mxCell>
                <mxCell id="50" value="" style="endArrow=none;html=1;exitX=0.357;exitY=-0.038;exitDx=0;exitDy=0;exitPerimeter=0;strokeColor=#FFFFFF;" parent="1" source="42" edge="1">
                    <mxGeometry width="50" height="50" relative="1" as="geometry">
                        <mxPoint x="180" y="380" as="sourcePoint"/>
                        <mxPoint x="280" y="510" as="targetPoint"/>
                        <Array as="points">
                            <mxPoint x="80" y="490"/>
                            <mxPoint x="200" y="490"/>
                            <mxPoint x="280" y="490"/>
                        </Array>
                    </mxGeometry>
                </mxCell>
                <mxCell id="51" value="" style="endArrow=block;endSize=16;endFill=0;html=1;strokeColor=#FFFFFF;" parent="1" edge="1">
                    <mxGeometry x="-0.3751" width="160" relative="1" as="geometry">
                        <mxPoint x="200" y="490" as="sourcePoint"/>
                        <mxPoint x="200" y="452" as="targetPoint"/>
                        <mxPoint as="offset"/>
                    </mxGeometry>
                </mxCell>
                <mxCell id="52" value="&lt;p style=&quot;margin:0px;margin-top:4px;text-align:center;&quot;&gt;&lt;b&gt;Model selector&lt;/b&gt;&lt;/p&gt;&lt;hr size=&quot;1&quot; style=&quot;border-style:solid;&quot;&gt;&lt;p style=&quot;margin:0px;margin-left:4px;&quot;&gt;+ best_score_&lt;/p&gt;&lt;p style=&quot;margin:0px;margin-left:4px;&quot;&gt;+ best_params_&lt;/p&gt;&lt;p style=&quot;margin:0px;margin-left:4px;&quot;&gt;+ best_estimator_&lt;/p&gt;&lt;hr size=&quot;1&quot; style=&quot;border-style:solid;&quot;&gt;&lt;p style=&quot;margin:0px;margin-left:4px;&quot;&gt;+ predict(X)&lt;/p&gt;&lt;p style=&quot;margin:0px;margin-left:4px;&quot;&gt;+ fit(X,y)&lt;/p&gt;&lt;p style=&quot;margin:0px;margin-left:4px;&quot;&gt;+ fit_predict(X, y)&lt;/p&gt;&lt;p style=&quot;margin:0px;margin-left:4px;&quot;&gt;+ score(X,Y)&lt;/p&gt;&lt;p style=&quot;margin:0px;margin-left:4px;&quot;&gt;&lt;br&gt;&lt;/p&gt;&lt;p style=&quot;margin:0px;margin-left:4px;&quot;&gt;&lt;br&gt;&lt;/p&gt;" style="verticalAlign=top;align=left;overflow=fill;html=1;whiteSpace=wrap;strokeColor=#FFFFFF;" parent="1" vertex="1">
                    <mxGeometry x="200" y="510" width="160" height="160" as="geometry"/>
                </mxCell>
            </root>
        </mxGraphModel>
    </diagram>
</mxfile>